<svg xmlns="http://www.w3.org/2000/svg" viewBox="0 0 24 24" width="24" height="24" fill="none">
  <path d="M4 4a2 2 0 0 1 2-2h8l6 6v12a2 2 0 0 1-2 2H6a2 2 0 0 1-2-2V4z" stroke="#f9e2af" stroke-width="1.8" stroke-linecap="round" stroke-linejoin="round" fill="#181825"/>
  <polyline points="14 2 14 8 20 8" stroke="#f9e2af" stroke-width="1.8" stroke-linecap="round" stroke-linejoin="round"/>
  <path d="M9 11.5c0-.8.7-1.5 1.5-1.5h2c.8 0 1.5.7 1.5 1.5v1.5H9v-1.5z" stroke="#f9e2af" stroke-width="1.5" stroke-linecap="round" fill="#f9e2af" fill-opacity="0.3"/>
  <path d="M15 15.5c0 .8-.7 1.5-1.5 1.5h-2c-.8 0-1.5-.7-1.5-1.5V14h5v1.5z" stroke="#a6e3a1" stroke-width="1.5" stroke-linecap="round" fill="#a6e3a1" fill-opacity="0.3"/>
  <circle cx="10.5" cy="11.5" r="0.6" fill="#f9e2af"/>
  <circle cx="13.5" cy="15.5" r="0.6" fill="#a6e3a1"/>
</svg>
